# xmcd CD database file
#
# Track frame offsets:
#	150
#	15000
#	29009
#	40903
#	52042
#	63550
#	75321
#	102108
#	119766
#	145494
#	160441
#	177117
#	199411
#	220813
#	233111
#	256532
#	269607
#	279508
#	294737
#
# Disc length: 4284 seconds
#
# Revision: 2
# Processed by: cddbd v1.5.2PL0 Copyright (c) Steve Scherf et al.
# Submitted via: NeoAudio 9.9.9
#
DISCID=1a10ba13
DTITLE=Various Artist - Essentiel Jazz 2 - CD2
DYEAR=2004
DGENRE=JPop
TTITLE0=Charlie Parker - Now's the time
TTITLE1=Louis Armstrong - Cabaret
TTITLE2=Duke Ellington - Satin doll
TTITLE3=Django Reinhardt - Belleville
TTITLE4=Keb' Mo' - What a wonderfull world
TTITLE5=The George Benson Quartet - A foggy day
TTITLE6=Lalo Schifrin - Jaws
TTITLE7=Grover Washington - Just the two of us
TTITLE8=Olu Dara - Harlem country girl
TTITLE9=Dexter Gordon - Isn't She lovely 
TTITLE10=Dianne Reeves - Love for sale
TTITLE11=Cannonball - Adderley
TTITLE12=Cassandra Wilson Traveling Miles
TTITLE13=Aretha Franklin - Walk on by
TTITLE14=Michel Pettrucciani - September second
TTITLE15=Bessie Smith - After you've gone
TTITLE16=Carmen Mc Rae - Take Five
TTITLE17=Mahalia Jackson - Joshua fit the battle of Jericho
TTITLE18=Miles Davis - Round Midnight
EXTD=YEAR: 2004
EXTT0=
EXTT1=
EXTT2=
EXTT3=
EXTT4=
EXTT5=
EXTT6=
EXTT7=
EXTT8=
EXTT9=
EXTT10=
EXTT11=
EXTT12=
EXTT13=
EXTT14=
EXTT15=
EXTT16=
EXTT17=
EXTT18=
PLAYORDER=
